<svg width="80" height="102" viewBox="0 0 80 102" fill="none" xmlns="http://www.w3.org/2000/svg">
  <style type="text/css">path{fill:#ebb011}</style>
  <path
    d="M4.81928 101.995C3.85543 101.995 2.40964 101.513 1.44579 100.55C-0.481929 98.6218 -0.481929 95.7302 1.44578 94.2844L44.8193 50.9105L1.44578 7.53658C-0.481933 5.60885 -0.481933 2.71726 1.44578 1.27146C3.37349 -0.174336 6.26506 -0.656268 7.71085 1.27146L53.4941 47.055C54.4579 48.0189 54.9398 48.9828 54.9398 50.4286L54.9398 51.3924C54.9398 52.3563 54.4579 53.8021 53.4941 54.7659L8.19278 100.55C7.22893 101.513 6.26507 101.995 4.81928 101.995Z"
    fill="#921330"/>
  <path
    d="M29.8794 102C28.9156 102 27.4698 101.518 26.5059 100.554C24.5782 98.6265 24.5782 95.7349 26.5059 94.2891L69.8795 50.9152L26.5059 7.54127C24.5782 5.61354 24.5782 2.72195 26.5059 1.27615C28.4337 -0.169645 31.3252 -0.651577 32.771 1.27615L78.5542 47.0597C79.5181 48.0236 80 48.9874 80 50.4332L80 51.3971C80 52.361 79.5181 53.8068 78.5542 54.7706L33.2529 100.554C32.2891 101.518 31.3252 102 29.8794 102Z"
    fill="#921330"/>
</svg>
